Coordinates
version=1
nRows=10
nColumns=40
inDegrees=yes

Units are S.I. units (second, meters, Newtons, ...)
If the header above contains a line with 'inDegrees', this indicates whether rotational values are in degrees (yes) or radians (no).

endheader
time	pelvis_tilt	pelvis_list	pelvis_rotation	pelvis_tx	pelvis_ty	pelvis_tz	hip_flexion_r	hip_adduction_r	hip_rotation_r	knee_angle_r	knee_angle_r_beta	ankle_angle_r	subtalar_angle_r	mtp_angle_r	hip_flexion_l	hip_adduction_l	hip_rotation_l	knee_angle_l	knee_angle_l_beta	ankle_angle_l	subtalar_angle_l	mtp_angle_l	lumbar_extension	lumbar_bending	lumbar_rotation	arm_flex_r	arm_add_r	arm_rot_r	elbow_flex_r	pro_sup_r	wrist_flex_r	wrist_dev_r	arm_flex_l	arm_add_l	arm_rot_l	elbow_flex_l	pro_sup_l	wrist_flex_l	wrist_dev_l
      1.32500000	     -8.16982268	     -2.75921594	     -3.53928035	      0.15438166	      0.43592933	     -1.19878784	     99.95954719	    -45.82931480	     24.14051137	    119.22441453	      2.08085858	     34.47885785	     19.09704719	      0.00000000	    108.40581112	    -49.16759843	     35.15861911	    120.93241883	      2.11066888	     35.04282541	     27.81153870	      0.00000000	    -29.03648071	      2.21610021	      0.07848647	     44.99896428	    -15.00004754	     44.99896428	     75.00017585	     45.00000026	      0.00000000	      0.00000000	     44.99896428	    -15.00004754	     44.99896428	     75.00017585	     45.00000026	      0.00000000	      0.00000000
      1.33000000	     -8.10844096	     -2.72204874	     -3.59039063	      0.15444909	      0.43448444	     -1.19868000	    100.23194613	    -45.78739053	     24.43756830	    119.40206017	      2.08395908	     34.55364258	     19.11246467	      0.00000000	    108.54667032	    -49.18516616	     35.37970773	    121.10430266	      2.11366882	     35.18156655	     27.82090272	      0.00000000	    -29.14947048	      2.15069226	      0.09501969	     44.99900826	    -15.00004425	     44.99900826	     75.00017585	     45.00000026	      0.00000000	      0.00000000	     44.99900826	    -15.00004425	     44.99900826	     75.00017585	     45.00000026	      0.00000000	      0.00000000
      1.33500000	     -7.90287649	     -2.74366662	     -3.62055259	      0.15454408	      0.43326816	     -1.19866295	    100.27308312	    -45.78758255	     24.66420352	    119.60153980	      2.08744066	     34.62724136	     19.19893758	      0.00000000	    108.59096638	    -49.17919336	     35.70710260	    121.29811264	      2.11705144	     35.29699110	     27.91228521	      0.00000000	    -29.38779815	      2.15275598	      0.14936417	     44.99905060	    -15.00004115	     44.99905060	     75.00017585	     45.00000026	      0.00000000	      0.00000000	     44.99905060	    -15.00004115	     44.99905060	     75.00017585	     45.00000026	      0.00000000	      0.00000000
      1.34000000	     -7.71552161	     -2.72359142	     -3.64208252	      0.15465134	      0.43216107	     -1.19862818	    100.36529648	    -45.80295907	     24.93794201	    119.77083722	      2.09039546	     34.72491199	     19.33995931	      0.00000000	    108.56653263	    -49.19199990	     35.91290998	    121.46305032	      2.11993015	     35.41985224	     27.97274362	      0.00000000	    -29.63392066	      2.10033419	      0.15193733	     44.99909052	    -15.00003831	     44.99909052	     75.00017585	     45.00000026	      0.00000000	      0.00000000	     44.99909052	    -15.00003831	     44.99909052	     75.00017585	     45.00000026	      0.00000000	      0.00000000
      1.34500000	     -7.37625958	     -2.64879456	     -3.58378477	      0.15482557	      0.43149463	     -1.19872193	    100.35710948	    -45.94922278	     25.32260898	    119.91233634	      2.09286508	     34.82508629	     19.62815154	      0.00000000	    108.20481897	    -49.18841208	     35.91952768	    121.60982124	      2.12249178	     35.58967443	     28.14026543	      0.00000000	    -30.07014914	      2.00570341	      0.05279618	     44.99912763	    -15.00003573	     44.99912763	     75.00017585	     45.00000026	      0.00000000	      0.00000000	     44.99912763	    -15.00003573	     44.99912763	     75.00017585	     45.00000026	      0.00000000	      0.00000000
      1.35000000	     -7.38160993	     -2.69658472	     -3.67657408	      0.15483337	      0.42980986	     -1.19858015	    100.59393514	    -45.82417048	     25.47966879	    120.13190604	      2.09669730	     34.91344814	     19.49003342	      0.00000000	    108.60953583	    -49.17801902	     36.37116380	    121.80823808	      2.12595481	     35.67932973	     28.07801606	      0.00000000	    -30.04683835	      2.04718526	      0.16232762	     44.99916145	    -15.00003345	     44.99916145	     75.00017585	     45.00000026	      0.00000000	      0.00000000	     44.99916145	    -15.00003345	     44.99916145	     75.00017585	     45.00000026	      0.00000000	      0.00000000
      1.35500000	     -7.17589280	     -2.69295394	     -3.68520220	      0.15499565	      0.42890413	     -1.19858389	    100.61976476	    -45.87550302	     25.70054925	    120.26733009	      2.09906089	     34.96327447	     19.69208645	      0.00000000	    108.55198065	    -49.20134123	     36.57419243	    121.94894607	      2.12841063	     35.75520202	     28.21197525	      0.00000000	    -30.31927108	      2.02588156	      0.17531774	     44.99919385	    -15.00003130	     44.99919385	     75.00017585	     45.00000026	      0.00000000	      0.00000000	     44.99919385	    -15.00003130	     44.99919385	     75.00017585	     45.00000026	      0.00000000	      0.00000000
      1.36000000	     -6.84490709	     -2.61792439	     -3.63539824	      0.15515678	      0.42829488	     -1.19865625	    100.60981785	    -46.00647274	     26.07896302	    120.40600720	      2.10148126	     35.08395071	     19.99859834	      0.00000000	    108.19695815	    -49.19986670	     36.57397605	    122.09406061	      2.13094335	     35.90526657	     28.31351136	      0.00000000	    -30.73930603	      1.91711170	      0.07765817	     44.99922356	    -15.00002939	     44.99922356	     75.00017585	     45.00000026	      0.00000000	      0.00000000	     44.99922356	    -15.00002939	     44.99922356	     75.00017585	     45.00000026	      0.00000000	      0.00000000
      1.36500000	     -6.78736139	     -2.59815174	     -3.68230994	      0.15526119	      0.42698411	     -1.19854473	    100.82646127	    -45.95997615	     26.33740472	    120.57349693	      2.10440451	     35.13766954	     20.08258019	      0.00000000	    108.36817092	    -49.21751668	     36.82387953	    122.25206495	      2.13370105	     35.95129734	     28.33874480	      0.00000000	    -30.79357252	      1.83664220	      0.04303522	     44.99925269	    -15.00002755	     44.99925269	     75.00017585	     45.00000026	      0.00000000	      0.00000000	     44.99925269	    -15.00002755	     44.99925269	     75.00017585	     45.00000026	      0.00000000	      0.00000000
      1.37000000	     -6.67084710	     -2.63619452	     -3.73085179	      0.15532710	      0.42586466	     -1.19853202	    100.88662000	    -45.91734564	     26.47107934	    120.72546537	      2.10705686	     35.19954420	     20.00504772	      0.00000000	    108.49479525	    -49.22237943	     37.14616868	    122.40459941	      2.13636328	     36.06910298	     28.42521750	      0.00000000	    -30.93672000	      1.90720969	      0.14209229	     44.99927543	    -15.00002614	     44.99927543	     75.00017585	     45.00000026	      0.00000000	      0.00000000	     44.99927543	    -15.00002614	     44.99927543	     75.00017585	     45.00000026	      0.00000000	      0.00000000
